# xmcd
#
# Track frame offsets: 
#        150
#        14325
#        33125
#        53837
#        62875
#        78015
#        92512
#        110710
#        123125
#        143065
#        163150
#        179112
#        181100
#
# Disc length: 2642 seconds
#
# Revision: 5
# Processed by: cddbd v1.5.2PL0 Copyright (c) Steve Scherf et al.
# Submitted via: ExactAudioCopy v0.95b3
#
DISCID=a40a500d
DTITLE=Patty Larkin - Angels Running
DYEAR=1993
DGENRE=Folk
TTITLE0=Who Holds Your Hand
TTITLE1=Do Not Disturb
TTITLE2=Good Thing
TTITLE3=Banish Misfortune, Open Hand
TTITLE4=Might as Well Dance
TTITLE5=Ain't That as Good
TTITLE6=Helen
TTITLE7=I Told Him That My Dog Wouldn't Run
TTITLE8=Pundits and Poets
TTITLE9=Booth of Glass
TTITLE10=Winter Wind
TTITLE11=Channeling Marlene
TTITLE12=Video
EXTD=
EXTT0=
EXTT1=
EXTT2=
EXTT3=
EXTT4=
EXTT5=
EXTT6=
EXTT7=
EXTT8=
EXTT9=
EXTT10=
EXTT11=
EXTT12=
PLAYORDER=
